<?xml version="1.0" standalone="no"?><!DOCTYPE svg PUBLIC "-//W3C//DTD SVG 1.1//EN" "http://www.w3.org/Graphics/SVG/1.1/DTD/svg11.dtd"><svg t="1628512114534" class="icon" viewBox="0 0 1024 1024" version="1.1" xmlns="http://www.w3.org/2000/svg" p-id="5426" xmlns:xlink="http://www.w3.org/1999/xlink" width="200" height="200"><defs><style type="text/css"></style></defs><path d="M908.48 773.12c-20.8 9.92-49.92 22.08-79.36 32l81.28-242.24a48.32 48.32 0 0 0-29.76-60.8l-59.84-20.8V279.04a48 48 0 0 0-48-48H672V144A48 48 0 0 0 625.28 96h-224A48 48 0 0 0 352 144v87.04H260.8a48 48 0 0 0-48 48v204.8l-55.36 19.2a48 48 0 0 0-29.44 60.8l83.84 250.24a902.72 902.72 0 0 1-93.44-40l-43.52 85.44C96 871.04 212.8 928 283.52 928a514.88 514.88 0 0 0 113.28-19.2 535.04 535.04 0 0 1 121.92-20.16 448 448 0 0 1 101.12 19.52 412.48 412.48 0 0 0 109.12 19.84h8.96c71.36-3.2 197.12-60.8 211.2-67.52zM448 192h128v39.04h-128z m-139.2 135.04h416V448l-189.12-64a48 48 0 0 0-32 0l-194.88 66.56z" p-id="5427" fill="#ffffff"></path></svg>