<?xml version="1.0" standalone="no"?><!DOCTYPE svg PUBLIC "-//W3C//DTD SVG 1.1//EN" "http://www.w3.org/Graphics/SVG/1.1/DTD/svg11.dtd"><svg t="1628522588510" class="icon" viewBox="0 0 1088 1024" version="1.1" xmlns="http://www.w3.org/2000/svg" p-id="1599" xmlns:xlink="http://www.w3.org/1999/xlink" width="212.5" height="200"><defs><style type="text/css"></style></defs><path d="M577.024 3.84a510.08 510.08 0 1 0 0.128 1019.904A510.08 510.08 0 0 0 577.024 3.84zM195.136 513.792a382.336 382.336 0 0 1 381.888-381.824c86.656 0 166.4 29.312 230.528 78.144l-534.208 534.272a379.584 379.584 0 0 1-78.208-230.592z m381.888 381.824a378.944 378.944 0 0 1-220.608-70.72l531.776-531.776a379.52 379.52 0 0 1 70.656 220.672 382.336 382.336 0 0 1-381.824 381.824z" fill="#ffffff" p-id="1600"></path></svg>