<?xml version="1.0" standalone="no"?><!DOCTYPE svg PUBLIC "-//W3C//DTD SVG 1.1//EN" "http://www.w3.org/Graphics/SVG/1.1/DTD/svg11.dtd"><svg t="1628512189828" class="icon" viewBox="0 0 1024 1024" version="1.1" xmlns="http://www.w3.org/2000/svg" p-id="7675" xmlns:xlink="http://www.w3.org/1999/xlink" width="200" height="200"><defs><style type="text/css"></style></defs><path d="M512 64C264.6 64 64 264.6 64 512s200.6 448 448 448 448-200.6 448-448S759.4 64 512 64zM868.6 369l-123 37.8c-12.6-28-30.2-53.6-52.6-76-22.4-22.4-48-40-76-52.6l37.8-123c47.6 19 91.2 47.8 128.6 85C820.8 277.8 849.6 321.4 868.6 369zM512 704c-106 0-192-86-192-192 0-106 86-192 192-192s192 86 192 192C704 618 618 704 512 704zM240.4 240.4c37.4-37.4 81-66 128.6-85l37.8 123c-28 12.6-53.6 30.2-76 52.6-22.4 22.4-40 48-52.6 76l-123-37.8C174.4 321.4 203.2 277.8 240.4 240.4zM155.4 655l123-37.8c12.6 28 30.2 53.6 52.6 76s48 40 76 52.6l-37.8 123c-47.6-19-91.2-47.8-128.6-85C203.2 746.2 174.4 702.6 155.4 655zM783.6 783.6c-37.4 37.4-81 66-128.6 85l-37.8-123c28-12.6 53.6-30.2 76-52.6s40-48 52.6-76l123 37.8C849.6 702.6 820.8 746.2 783.6 783.6z" p-id="7676" fill="#ffffff"></path></svg>