<?xml version="1.0" standalone="no"?><!DOCTYPE svg PUBLIC "-//W3C//DTD SVG 1.1//EN" "http://www.w3.org/Graphics/SVG/1.1/DTD/svg11.dtd"><svg t="1628518195084" class="icon" viewBox="0 0 1024 1024" version="1.1" xmlns="http://www.w3.org/2000/svg" p-id="2370" xmlns:xlink="http://www.w3.org/1999/xlink" width="200" height="200"><defs><style type="text/css"></style></defs><path d="M905.042955 788.81866H127.632425c-17.242229 0-31.270482-14.027229-31.270482-31.269458V157.769466c0-17.242229 14.028253-31.270482 31.270482-31.270482h777.41053c17.242229 0 31.269458 14.027229 31.269458 31.270482v599.779736c0 17.242229-14.027229 31.269458-31.269458 31.269458z m-770.71432-37.965668h764.01811V164.4667H134.328635v586.386292z" fill="#bfbfbf" p-id="2371"></path><path d="M900.659702 591.245652H118.866943c-10.484586 0-18.983858-8.499272-18.983858-18.982833s8.499272-18.982834 18.983858-18.982834h781.792759c10.483562 0 18.982834 8.499272 18.982834 18.982834s-8.499272 18.982834-18.982834 18.982833z" fill="#bfbfbf" p-id="2372"></path><path d="M518.831363 662.819332m-24.025469 0a24.025469 24.025469 0 1 0 48.050938 0 24.025469 24.025469 0 1 0-48.050938 0Z" fill="#bfbfbf" p-id="2373"></path><path d="M518.828291 887.49868c-10.483562 0-18.982834-8.499272-18.982834-18.982834v-93.038411c0-10.483562 8.499272-18.982834 18.982834-18.982834s18.982834 8.499272 18.982834 18.982834v93.038411c0 10.483562-8.499272 18.982834-18.982834 18.982834z" fill="#bfbfbf" p-id="2374"></path><path d="M732.229542 897.737533H305.428064c-10.484586 0-18.983858-8.499272-18.983858-18.982834s8.499272-18.982834 18.983858-18.982833h426.801478c10.483562 0 18.982834 8.499272 18.982834 18.982833s-8.499272 18.982834-18.982834 18.982834z" fill="#bfbfbf" p-id="2375"></path></svg>