<?xml version="1.0" standalone="no"?><!DOCTYPE svg PUBLIC "-//W3C//DTD SVG 1.1//EN" "http://www.w3.org/Graphics/SVG/1.1/DTD/svg11.dtd"><svg t="1628583119486" class="icon" viewBox="0 0 1024 1024" version="1.1" xmlns="http://www.w3.org/2000/svg" p-id="3011" xmlns:xlink="http://www.w3.org/1999/xlink" width="200" height="200"><defs><style type="text/css"></style></defs><path d="M402.285714 822.857143q0 2.285714 0.571429 11.428571t0.285714 15.142857-1.714286 13.428572-5.714285 11.142857-11.714286 3.714286H201.142857q-68 0-116.285714-48.285715T36.571429 713.142857V310.857143q0-68 48.285714-116.285714T201.142857 146.285714h182.857143q7.428571 0 12.857143 5.428572T402.285714 164.571429q0 2.285714 0.571429 11.428571t0.285714 15.142857-1.714286 13.428572-5.714285 11.142857T384 219.428571H201.142857q-37.714286 0-64.571428 26.857143t-26.857143 64.571429v402.285714q0 37.714286 26.857143 64.571429t64.571428 26.857143h178.285714l6.571429 0.571428 6.571429 1.714286 4.571428 3.142857 4 5.142857 1.142857 7.714286z m530.285715-310.857143q0 14.857143-10.857143 25.714286l-310.857143 310.857143q-10.857143 10.857143-25.714286 10.857142t-25.714286-10.857142-10.857142-25.714286v-164.571429H292.571429q-14.857143 0-25.714286-10.857143t-10.857143-25.714285V402.285714q0-14.857143 10.857143-25.714285t25.714286-10.857143h256V201.142857q0-14.857143 10.857142-25.714286t25.714286-10.857142 25.714286 10.857142l310.857143 310.857143q10.857143 10.857143 10.857143 25.714286z" p-id="3012" fill="#8a8a8a"></path></svg>