<?xml version="1.0" standalone="no"?><!DOCTYPE svg PUBLIC "-//W3C//DTD SVG 1.1//EN" "http://www.w3.org/Graphics/SVG/1.1/DTD/svg11.dtd"><svg t="1628518429827" class="icon" viewBox="0 0 1024 1024" version="1.1" xmlns="http://www.w3.org/2000/svg" p-id="7444" xmlns:xlink="http://www.w3.org/1999/xlink" width="200" height="200"><defs><style type="text/css"></style></defs><path d="M981.333333 213.333333l-192 0-98.133333 0L618.666667 213.333333 405.333333 213.333333l-72.533333 0L298.666667 213.333333 42.666667 213.333333c-23.466667 0-42.666667-19.2-42.666667-42.666667s19.2-42.666667 42.666667-42.666667l277.333333 0L320 85.333333c0-46.933333 38.4-85.333333 85.333333-85.333333l213.333333 0c46.933333 0 85.333333 38.4 85.333333 85.333333l0 42.666667 277.333333 0c23.466667 0 42.666667 19.2 42.666667 42.666667S1004.8 213.333333 981.333333 213.333333zM618.666667 106.666667c0-12.8-8.533333-21.333333-21.333333-21.333333l-170.666667 0c-12.8 0-21.333333 8.533333-21.333333 21.333333l0 21.333333 213.333333 0L618.666667 106.666667zM341.333333 810.666667 341.333333 341.333333c0-23.466667 19.2-42.666667 42.666667-42.666667 23.466667 0 42.666667 19.2 42.666667 42.666667l0 469.333333c0 23.466667-19.2 42.666667-42.666667 42.666667C360.533333 853.333333 341.333333 834.133333 341.333333 810.666667zM597.333333 810.666667 597.333333 341.333333c0-23.466667 19.2-42.666667 42.666667-42.666667 23.466667 0 42.666667 19.2 42.666667 42.666667l0 469.333333c0 23.466667-19.2 42.666667-42.666667 42.666667C616.533333 853.333333 597.333333 834.133333 597.333333 810.666667zM128 256c23.466667 0 42.666667 19.2 42.666667 42.666667l0 106.666667 0 512c0 12.8 8.533333 21.333333 21.333333 21.333333l640 0c12.8 0 21.333333-8.533333 21.333333-21.333333L853.333333 384l0-85.333333c0-23.466667 19.2-42.666667 42.666667-42.666667s42.666667 19.2 42.666667 42.666667l0 85.333333 0 554.666667c0 46.933333-38.4 85.333333-85.333333 85.333333L170.666667 1024c-46.933333 0-85.333333-38.4-85.333333-85.333333L85.333333 405.333333l0-21.333333 0-85.333333C85.333333 275.2 104.533333 256 128 256z" p-id="7445" fill="#8a8a8a"></path></svg>